<?xml version="1.0" encoding="utf-8"?>
<!-- Generator: Adobe Illustrator 23.0.1, SVG Export Plug-In . SVG Version: 6.00 Build 0)  -->
<svg version="1.1" id="Layer_1" xmlns="http://www.w3.org/2000/svg" xmlns:xlink="http://www.w3.org/1999/xlink" x="0px" y="0px"
	 viewBox="0 0 20 20" style="enable-background:new 0 0 20 20;" xml:space="preserve">
<style type="text/css">
	.st0{fill:#ffffff;}
</style>
<g>
	<path class="st0" d="M10,0C4.48,0,0,4.48,0,10s4.48,10,10,10s10-4.48,10-10S15.52,0,10,0z M7.28,4.55c0-0.39,0.32-0.7,0.7-0.7h3.44
		c0.39,0,0.7,0.32,0.7,0.7v2.72h2.73c0.39,0,0.7,0.32,0.7,0.7v3.44c0,0.39-0.32,0.7-0.7,0.7h-1.76c-0.27,0.7,0.09,1.8,0.42,2.29
		c-1.72-1.02-1.23-2.93-1.23-2.93s0,0,0,0c0.12-0.65,0.42-1.42,0.98-2.32c-0.48,0.31-5.64,3.56-5.98-2.24V4.55z M9.96,15.53H7.98
		c-0.39,0-0.7-0.32-0.7-0.7v-2.71H4.57c-0.39,0-0.7-0.32-0.7-0.7V7.97c0-0.39,0.32-0.7,0.7-0.7h2.28c0,0.77,0.14,5.53,3.84,7.52
		c0.53,0.26,2.3,1.15,5.09,0.83C15.19,15.88,13.26,16.73,9.96,15.53z"/>
	<circle class="st0" cx="9.77" cy="7.61" r="1.46"/>
</g>
</svg>
